<svg width="44" height="44" viewBox="0 0 44 44" fill="none" xmlns="http://www.w3.org/2000/svg">
<rect width="44" height="44" fill="#EEE7DD"/>
<path d="M6.896 18V6.496H16.496C16.848 6.496 17.168 6.58667 17.456 6.768C17.7547 6.93867 17.9893 7.168 18.16 7.456C18.3307 7.744 18.416 8.064 18.416 8.416V11.792C18.416 12.144 18.3307 12.464 18.16 12.752C17.9893 13.04 17.7547 13.2747 17.456 13.456C17.168 13.6267 16.848 13.712 16.496 13.712H8.192V18H6.896ZM8.816 12.4H16.496C16.6667 12.4 16.8107 12.3413 16.928 12.224C17.056 12.1067 17.12 11.9627 17.12 11.792V8.416C17.12 8.24533 17.056 8.10133 16.928 7.984C16.8107 7.856 16.6667 7.792 16.496 7.792H8.816C8.64533 7.792 8.496 7.856 8.368 7.984C8.25067 8.10133 8.192 8.24533 8.192 8.416V11.792C8.192 11.9627 8.25067 12.1067 8.368 12.224C8.496 12.3413 8.64533 12.4 8.816 12.4Z" fill="black"/>
<path d="M25.912 18V6.464H27.208V16.704H37.432V18H25.912Z" fill="black"/>
<path d="M5.928 38V28.4C5.928 28.048 6.01333 27.728 6.184 27.44C6.35467 27.1413 6.584 26.9067 6.872 26.736C7.17067 26.5653 7.496 26.48 7.848 26.48H15.528C15.88 26.48 16.2 26.5653 16.488 26.736C16.7867 26.9067 17.0213 27.1413 17.192 27.44C17.3627 27.728 17.448 28.048 17.448 28.4V38H16.152V33.792H7.224V38H5.928ZM7.224 32.496H16.152V28.4C16.152 28.2293 16.088 28.0853 15.96 27.968C15.8427 27.84 15.6987 27.776 15.528 27.776H7.848C7.67733 27.776 7.528 27.84 7.4 27.968C7.28267 28.0853 7.224 28.2293 7.224 28.4V32.496Z" fill="black"/>
<path d="M24.896 38V26.48H26.672L35.12 36.528V26.48H36.416V38H34.64L26.192 27.952V38H24.896Z" fill="black"/>
</svg>
